<svg xmlns="http://www.w3.org/2000/svg" width="34" height="30" fill="none" viewBox="0 0 34 30"><g id="Group 7905"><path id="Vector" fill="#77BF00" d="M17.3726 29.3169C26.2188 29.3169 33.0866 22.8535 32.7124 14.8805C32.3381 6.90749 24.8635 0.444092 16.0174 0.444092C7.17122 0.444092 0.303381 6.90749 0.677621 14.8805C1.05186 22.8535 8.52647 29.3169 17.3726 29.3169Z"/><path id="Vector_2" fill="#fff" d="M20.6684 8.63963C19.7144 8.25159 18.5842 8.23677 16.9436 8.59644L16.9181 8.60157L16.1233 5.92546L14.4579 6.29318L15.256 8.97418C14.7593 9.08823 14.2113 9.21382 13.6742 9.34263L12.8765 6.63964L11.2085 7.00538L11.9999 9.71588C11.4173 9.86522 8.58687 10.4488 8.58687 10.4488L9.01958 12.0245L11.182 11.5905L13.5111 19.4755L11.3691 19.9081L11.8188 21.5112C11.8188 21.5112 14.6533 20.9582 15.2984 20.8441L16.0947 23.5695L17.7601 23.2018L16.9686 20.5175C17.529 20.4141 18.0848 20.2868 18.572 20.1927L19.3464 22.8627L21.0118 22.495L20.2424 19.8682C22.0671 19.4242 23.261 18.8086 23.8868 17.9736C24.1498 17.6112 24.3231 17.2056 24.3959 16.7825C24.4686 16.3593 24.4393 15.9276 24.3096 15.5148C23.8285 13.8685 22.1581 13.3048 20.8754 13.3106L20.8678 13.2784C22.0777 12.5547 22.6142 11.4389 22.3012 10.3705C22.0449 9.4927 21.4532 8.91945 20.6684 8.63963ZM19.9484 16.3151C20.2296 17.2774 19.5242 18.1836 17.9642 18.5281L16.629 18.8191L15.687 15.6134C16.0968 15.4496 16.525 15.3227 16.9648 15.2346C18.4536 14.9115 19.6079 15.1472 19.9484 16.3151ZM18.6865 11.6385C18.7677 11.8959 18.7702 12.1672 18.6936 12.4256C18.617 12.6841 18.464 12.9209 18.2496 13.1128C17.9094 13.4404 17.3907 13.7005 16.7085 13.8495L16.699 13.8542L15.3712 14.1449L14.432 10.9378C14.8417 10.7755 15.2694 10.6498 15.7086 10.5628C15.7143 10.5599 15.7181 10.5581 15.7237 10.5552C16.3937 10.4123 16.9923 10.3813 17.48 10.497C18.0735 10.6394 18.5025 11.001 18.6865 11.6385Z"/></g></svg>