<svg width="34" height="30" viewBox="0 0 34 30" fill="none" xmlns="http://www.w3.org/2000/svg">
<g id="Group 7901">
<path id="Vector" d="M16.9649 29.4221C26.0362 29.4221 33.2692 22.9587 33.1201 14.9857C32.971 7.01271 25.4964 0.549316 16.4251 0.549316C7.35376 0.549316 0.120843 7.01271 0.269911 14.9857C0.418979 22.9587 7.89358 29.4221 16.9649 29.4221Z" fill="#F7931A"/>
<path id="Vector_2" d="M23.6499 11.4026C23.0405 10.6446 22.0579 10.1368 20.4086 9.73392L20.3832 9.72724L21.2532 7.03236L19.5773 6.62569L18.7074 9.3263C18.2051 9.20888 17.6509 9.07906 17.1044 8.95687L17.9876 6.23717L16.3107 5.82764L15.4176 8.55115C14.8192 8.42705 11.9953 7.69964 11.9953 7.69964L11.4521 9.27094L13.6027 9.83702L11.0282 17.7718L8.89646 17.2133L8.3522 18.8161C8.3522 18.8161 11.1618 19.5722 11.7944 19.7545L10.8968 22.4933L12.5727 22.9L13.4503 20.1994C14.0023 20.354 14.5642 20.4858 15.0467 20.6165L14.1624 23.2971L15.8382 23.7038L16.7015 21.0633C18.5617 21.4728 19.9692 21.4556 21.007 20.9974C21.4498 20.7947 21.8393 20.5149 22.1509 20.1757C22.4625 19.8364 22.6894 19.445 22.8175 19.0261C23.3595 17.3718 22.2246 16.1461 21.0964 15.5895L21.1085 15.558C22.5934 15.453 23.7172 14.7094 24.0683 13.6354C24.3575 12.7534 24.1742 11.9916 23.6499 11.4026ZM18.5242 17.8186C18.2073 18.7856 17.0581 19.2715 15.4882 18.8906L14.1469 18.5613L15.1979 15.3375C15.6532 15.3733 16.103 15.4494 16.5403 15.5647C18.0351 15.9332 18.9094 16.6453 18.5242 17.8186ZM20.1558 13.1648C20.0764 13.4261 19.9197 13.6651 19.7012 13.8582C19.4827 14.0514 19.2098 14.192 18.9094 14.2664C18.4193 14.4049 17.8121 14.4058 17.1265 14.2378H17.1155L15.7808 13.9113L16.8351 10.6876C17.2893 10.7246 17.738 10.8017 18.1742 10.9176C18.1808 10.9176 18.1852 10.9176 18.1919 10.9176C18.8631 11.0857 19.4062 11.3205 19.7661 11.6355C20.2033 12.0202 20.3678 12.5252 20.1558 13.1648Z" fill="white"/>
</g>
</svg>
