<svg width="34" height="70" viewBox="0 0 34 70" fill="none" xmlns="http://www.w3.org/2000/svg">
<g id="Group 7902">
<path id="Vector" d="M33.3867 52.6934C33.3867 43.4739 25.9128 36 16.6934 36C7.47387 36 -1.13269e-06 43.4739 -7.2969e-07 52.6934C-3.26693e-07 61.9128 7.47387 69.3867 16.6934 69.3867C25.9128 69.3867 33.3867 61.9128 33.3867 52.6934Z" fill="#3E7DDD"/>
<path id="Vector_2" d="M23.2658 11.7092L16.6765 8.67435V0.340082L16.7087 0.285889L23.2658 11.7092Z" fill="#C0CCF7"/>
<path id="Vector_3" d="M23.3547 11.8649L16.7087 15.9116L16.6765 15.8921V8.67456L23.2658 11.7094L23.3547 11.8649Z" fill="#A6B9FF"/>
<path id="Vector_4" d="M16.6771 0.340088V8.67436L10.0302 11.8149L16.6771 0.340088Z" fill="white"/>
<path id="Vector_5" d="M23.2658 13.3157L16.6765 17.4397V22.9959L16.7087 23.0501L23.2658 13.3157Z" fill="#C0CCF7"/>
<path id="Vector_6" d="M16.6771 22.9957V17.4395L10.0302 13.2097L16.6771 22.9957Z" fill="white"/>
<path id="Vector_7" d="M16.6765 8.67456V15.8921L10 11.8649L10.0296 11.8151L16.6765 8.67456Z" fill="#C0CCF7"/>
</g>
</svg>
