<svg width="34" height="34" viewBox="0 0 34 34" fill="none" xmlns="http://www.w3.org/2000/svg">
<g id="Group 7903">
<path id="Vector" d="M16.6934 33.3867C25.9128 33.3867 33.3867 25.9128 33.3867 16.6934C33.3867 7.47387 25.9128 0 16.6934 0C7.47387 0 0 7.47387 0 16.6934C0 25.9128 7.47387 33.3867 16.6934 33.3867Z" fill="#907EFF"/>
<path id="Vector_2" d="M21.8358 18.4161C21.4726 18.3293 21.098 18.2953 20.7244 18.3152C20.4532 18.3263 20.1847 18.2598 19.9527 18.124C19.7208 17.9883 19.5358 17.7894 19.4211 17.5525L19.3067 17.3233C19.202 17.1118 19.1568 16.8775 19.1755 16.6439C19.1942 16.4103 19.2761 16.1855 19.4131 15.9919L19.6478 15.6613C19.775 15.4778 19.948 15.3281 20.1511 15.2259C20.3541 15.1237 20.5806 15.0724 20.8096 15.0766C21.1278 15.0859 21.4458 15.0564 21.7563 14.989C23.4075 14.6341 24.6627 13.2624 24.7897 11.6384C24.8339 11.0822 24.7477 10.5234 24.5376 10.0035C24.3275 9.48359 23.9989 9.01572 23.5759 8.63446C23.1528 8.25319 22.6463 7.96826 22.0936 7.80069C21.541 7.63313 20.9563 7.5872 20.3827 7.66631C18.8013 7.87571 17.2823 9.36967 17.0928 10.8961C16.982 11.7563 17.1875 12.6267 17.6738 13.3561C17.9834 13.8201 17.9908 14.4125 17.6572 14.8606L17.355 15.2672C17.2243 15.443 17.0515 15.5858 16.8512 15.6835C16.6509 15.7812 16.4291 15.8308 16.2046 15.8282C15.948 15.8252 15.6974 15.7535 15.4808 15.6212C15.2642 15.4888 15.0901 15.301 14.978 15.0788C14.6001 14.3236 13.9684 13.7133 13.1854 13.3467C12.4023 12.9802 11.5137 12.8789 10.6634 13.0593C9.81307 13.2396 9.05089 13.691 8.50024 14.3404C7.9496 14.9898 7.64275 15.7992 7.62936 16.6374C7.61598 17.4756 7.89686 18.2937 8.42651 18.9591C8.95616 19.6244 9.70357 20.0982 10.5477 20.3036C11.3919 20.5091 12.2833 20.4341 13.0777 20.0909C13.8721 19.7478 14.5229 19.1565 14.9248 18.4128C15.0431 18.2017 15.219 18.0258 15.4335 17.904C15.6481 17.7822 15.8931 17.7192 16.1422 17.7217H16.279C16.5007 17.7217 16.7193 17.7727 16.9164 17.8705C17.1135 17.9682 17.2835 18.11 17.4122 18.2838L17.6234 18.5693C17.9542 19.0156 17.9502 19.6036 17.6492 20.0693C17.1782 20.7976 16.9835 21.6603 17.098 22.5111C17.2943 24.0282 18.815 25.5117 20.3855 25.72C20.9594 25.7989 21.5444 25.7526 22.0972 25.5846C22.65 25.4165 23.1566 25.131 23.5794 24.7492C24.0022 24.3673 24.3305 23.8988 24.54 23.3784C24.7495 22.8579 24.8348 22.2988 24.7897 21.7424C24.6627 20.1481 23.4481 18.798 21.8358 18.4161Z" fill="white"/>
</g>
</svg>
